<svg xmlns="http://www.w3.org/2000/svg" width="195" height="97.5"><style><![CDATA[{}]]></style><filter id="G"><feGaussianBlur in="SourceGraphic" stdDeviation="2"/></filter><path d="M0 0h195v97.5H0z" class="X"/><g><path d="M12.5 52.5h5v5h-5z" class="D"/><path d="M37.5 40h5v5h-5z" class="B"/><path d="M37.5 65h5v5h-5zm25-12.5h5v5h-5zm25-12.5h5v5h-5z" class="C"/><path d="M112.5 52.5h5v5h-5z" class="D"/><path d="M62.5 27.5h5v5h-5zm0 50h5v5h-5zm25-12.5h5v5h-5z" class="B"/><path d="M62.5 2.5h5v5h-5z" class="D"/><path d="M137.5 40h5v5h-5z" class="B"/><path d="M137.5 65h5v5h-5zm25-12.5h5v5h-5zm25-12.5h5v5h-5z" class="C"/><path d="M162.5 27.5h5v5h-5zm0 50h5v5h-5zm25-12.5h5v5h-5z" class="B"/><path d="M162.5 2.5h5v5h-5z" class="D"/><path d="M87.5 90h5v5h-5z" class="C"/><path d="M137.5 90h5v5h-5zm-25-12.5h5v5h-5zM37.5 90h5v5h-5zm-25-12.5h5v5h-5z" class="B"/><path d="M187.5 90h5v5h-5z" class="C"/><path d="M62.5 2.5h5v5h-5zm100 0h5v5h-5z" class="D"/><path d="M37.5 40h5v5h-5zm25-12.5h5v5h-5zm75 12.5h5v5h-5zm25-12.5h5v5h-5z" class="B"/><path d="M112.5 2.5h5v5h-5zm25 12.5h5v5h-5z" class="C"/><path d="M112.5 27.5h5v5h-5zM87.5 15h5v5h-5z" class="B"/><path d="M12.5 2.5h5v5h-5zm25 12.5h5v5h-5z" class="C"/><path d="M12.5 27.5h5v5h-5zm175-12.5h5v5h-5z" class="B"/></g></svg>
